<?xml version="1.0" encoding="us-ascii" standalone="no"?><svg xmlns="http://www.w3.org/2000/svg" xmlns:xlink="http://www.w3.org/1999/xlink" contentStyleType="text/css" height="584px" preserveAspectRatio="none" style="width:775px;height:584px;background:#FFFFFF;" version="1.1" viewBox="0 0 775 584" width="775px" zoomAndPan="magnify"><defs/><g><!--cluster system--><g id="cluster_system"><path d="M333.5,6 L455.5,6 A3.75,3.75 0 0 1 458,8.5 L465,29.6094 L765.5,29.6094 A2.5,2.5 0 0 1 768,32.1094 L768,574.5 A2.5,2.5 0 0 1 765.5,577 L333.5,577 A2.5,2.5 0 0 1 331,574.5 L331,8.5 A2.5,2.5 0 0 1 333.5,6 " fill="none" style="stroke:#000000;stroke-width:1.5;"/><line style="stroke:#000000;stroke-width:1.5;" x1="331" x2="465" y1="29.6094" y2="29.6094"/><text fill="#000000" font-family="sans-serif" font-size="14" font-weight="bold" lengthAdjust="spacing" textLength="121" x="335" y="22.5332">&#1048;&#1057; &#1080;&#1079;&#1076;&#1072;&#1090;&#1077;&#1083;&#1100;&#1089;&#1090;&#1074;&#1072;</text></g><g id="elem_publish_chapter"><ellipse cx="427.7817" cy="160.9034" fill="#F1F1F1" rx="80.7817" ry="27.9034" style="stroke:#181818;stroke-width:0.5;"/><text fill="#000000" font-family="sans-serif" font-size="14" lengthAdjust="spacing" textLength="94" x="378.7817" y="155.8272">&#1054;&#1087;&#1091;&#1073;&#1083;&#1080;&#1082;&#1086;&#1074;&#1072;&#1090;&#1100;</text><text fill="#000000" font-family="sans-serif" font-size="14" lengthAdjust="spacing" textLength="35" x="410.2817" y="173.4366">&#1075;&#1083;&#1072;&#1074;&#1091;</text></g><g id="elem_view_chapter"><ellipse cx="675.5391" cy="342.9034" fill="#F1F1F1" rx="76.5391" ry="27.9034" style="stroke:#181818;stroke-width:0.5;"/><text fill="#000000" font-family="sans-serif" font-size="14" lengthAdjust="spacing" textLength="88" x="629.5391" y="337.8272">&#1055;&#1088;&#1086;&#1089;&#1084;&#1086;&#1090;&#1088;&#1077;&#1090;&#1100;</text><text fill="#000000" font-family="sans-serif" font-size="14" lengthAdjust="spacing" textLength="35" x="658.0391" y="355.4366">&#1075;&#1083;&#1072;&#1074;&#1091;</text></g><g id="elem_edit_chapter"><ellipse cx="427.7756" cy="69.9034" fill="#F1F1F1" rx="60.2756" ry="27.9034" style="stroke:#181818;stroke-width:0.5;"/><text fill="#000000" font-family="sans-serif" font-size="14" lengthAdjust="spacing" textLength="65" x="393.2756" y="64.8272">&#1048;&#1079;&#1084;&#1077;&#1085;&#1080;&#1090;&#1100;</text><text fill="#000000" font-family="sans-serif" font-size="14" lengthAdjust="spacing" textLength="35" x="410.2756" y="82.4366">&#1075;&#1083;&#1072;&#1074;&#1091;</text></g><g id="elem_check_review"><ellipse cx="428.0685" cy="251.9034" fill="#F1F1F1" rx="59.5685" ry="27.9034" style="stroke:#181818;stroke-width:0.5;"/><text fill="#000000" font-family="sans-serif" font-size="14" lengthAdjust="spacing" textLength="64" x="394.0685" y="246.8272">&#1054;&#1073;&#1086;&#1079;&#1088;&#1077;&#1090;&#1100;</text><text fill="#000000" font-family="sans-serif" font-size="14" lengthAdjust="spacing" textLength="66" x="395.0685" y="264.4366">&#1088;&#1077;&#1094;&#1077;&#1085;&#1079;&#1080;&#1102;</text></g><g id="elem_leave_comment"><ellipse cx="428.1543" cy="342.9034" fill="#F1F1F1" rx="58.1543" ry="27.9034" style="stroke:#181818;stroke-width:0.5;"/><text fill="#000000" font-family="sans-serif" font-size="14" lengthAdjust="spacing" textLength="55" x="398.6543" y="337.8272">&#1057;&#1086;&#1079;&#1076;&#1072;&#1090;&#1100;</text><text fill="#000000" font-family="sans-serif" font-size="14" lengthAdjust="spacing" textLength="66" x="395.1543" y="355.4366">&#1088;&#1077;&#1094;&#1077;&#1085;&#1079;&#1080;&#1102;</text></g><g id="elem_make_request"><ellipse cx="427.8406" cy="433.9034" fill="#F1F1F1" rx="46.8406" ry="27.9034" style="stroke:#181818;stroke-width:0.5;"/><text fill="#000000" font-family="sans-serif" font-size="14" lengthAdjust="spacing" textLength="46" x="402.8406" y="428.8272">&#1050;&#1091;&#1087;&#1080;&#1090;&#1100;</text><text fill="#000000" font-family="sans-serif" font-size="14" lengthAdjust="spacing" textLength="34" x="410.8406" y="446.4366">&#1082;&#1085;&#1080;&#1075;&#1091;</text></g><g id="elem_complete_request"><ellipse cx="428.0894" cy="524.9034" fill="#F1F1F1" rx="71.5894" ry="27.9034" style="stroke:#181818;stroke-width:0.5;"/><text fill="#000000" font-family="sans-serif" font-size="14" lengthAdjust="spacing" textLength="81" x="385.5894" y="519.8272">&#1054;&#1073;&#1088;&#1072;&#1073;&#1086;&#1090;&#1072;&#1090;&#1100;</text><text fill="#000000" font-family="sans-serif" font-size="14" lengthAdjust="spacing" textLength="34" x="411.0894" y="537.4366">&#1079;&#1072;&#1082;&#1072;&#1079;</text></g><!--entity author--><g id="elem_author"><ellipse cx="212" cy="95.5" fill="#F1F1F1" rx="4.5" ry="4.5" style="stroke:#181818;stroke-width:0.5;"/><path d="M199.5,102 L199.5,107 L209,107 L209,109.2574 L199.5,118.7574 L203.7426,123 L212,114.7426 L220.2574,123 L224.5,118.7574 L215,109.2574 L215,107 L224.5,107 L224.5,102 L199.5,102 " fill="#F1F1F1" style="stroke:#181818;stroke-width:0.5;"/><text fill="#000000" font-family="sans-serif" font-size="14" lengthAdjust="spacing" textLength="39" x="192.5" y="138.0332">&#1040;&#1074;&#1090;&#1086;&#1088;</text></g><!--entity employee--><g id="elem_employee"><ellipse cx="212" cy="498" fill="#F1F1F1" rx="4.5" ry="4.5" style="stroke:#181818;stroke-width:0.5;"/><path d="M199.5,504.5 L199.5,509.5 L209,509.5 L209,511.7574 L199.5,521.2574 L203.7426,525.5 L212,517.2426 L220.2574,525.5 L224.5,521.2574 L215,511.7574 L215,509.5 L224.5,509.5 L224.5,504.5 L199.5,504.5 " fill="#F1F1F1" style="stroke:#181818;stroke-width:0.5;"/><text fill="#000000" font-family="sans-serif" font-size="14" lengthAdjust="spacing" textLength="70" x="167" y="540.5332">&#1057;&#1086;&#1090;&#1088;&#1091;&#1076;&#1085;&#1080;&#1082;</text><text fill="#000000" font-family="sans-serif" font-size="14" lengthAdjust="spacing" textLength="90" x="167" y="558.1426">&#1080;&#1079;&#1076;&#1072;&#1090;&#1077;&#1083;&#1100;&#1089;&#1090;&#1074;&#1072;</text></g><!--entity reviewer--><g id="elem_reviewer"><ellipse cx="41.5" cy="413.5" fill="#F1F1F1" rx="4.5" ry="4.5" style="stroke:#181818;stroke-width:0.5;"/><path d="M29,420 L29,425 L38.5,425 L38.5,427.2574 L29,436.7574 L33.2426,441 L41.5,432.7426 L49.7574,441 L54,436.7574 L44.5,427.2574 L44.5,425 L54,425 L54,420 L29,420 " fill="#F1F1F1" style="stroke:#181818;stroke-width:0.5;"/><text fill="#000000" font-family="sans-serif" font-size="14" lengthAdjust="spacing" textLength="71" x="6" y="456.0332">&#1056;&#1077;&#1094;&#1077;&#1085;&#1079;&#1077;&#1085;&#1090;</text></g><!--entity client--><g id="elem_client"><ellipse cx="212" cy="411.5" fill="#F1F1F1" rx="4.5" ry="4.5" style="stroke:#181818;stroke-width:0.5;"/><path d="M199.5,418 L199.5,423 L209,423 L209,425.2574 L199.5,434.7574 L203.7426,439 L212,430.7426 L220.2574,439 L224.5,434.7574 L215,425.2574 L215,423 L224.5,423 L224.5,418 L199.5,418 " fill="#F1F1F1" style="stroke:#181818;stroke-width:0.5;"/><text fill="#000000" font-family="sans-serif" font-size="14" lengthAdjust="spacing" textLength="47" x="188.5" y="454.0332">&#1050;&#1083;&#1080;&#1077;&#1085;&#1090;</text></g><!--link reviewer to employee--><g id="link_reviewer_employee"><path d="M77.01,433 C117.45,433 178,433 178,433 C178,433 178,459.92 178,486.8 " fill="none" id="reviewer-to-employee" style="stroke:#181818;stroke-width:1.0;stroke-dasharray:7.0,7.0;"/><polygon fill="#181818" points="178,492.8,182,483.8,178,487.8,174,483.8,178,492.8" style="stroke:#181818;stroke-width:1.0;"/><text fill="#000000" font-family="sans-serif" font-size="13" lengthAdjust="spacing" textLength="53" x="103.4" y="447.4951">&#171;extend&#187;</text></g><!--link client to make_request--><g id="link_client_make_request"><path d="M235.53,432 C270.3,432 336.12,432 381.02,432 " fill="none" id="client-make_request" style="stroke:#181818;stroke-width:1.0;"/></g><!--link make_request to complete_request--><g id="link_make_request_complete_request"><path d="M428,462.29 C428,473.25 428,479.77 428,490.72 " fill="none" id="make_request-to-complete_request" style="stroke:#181818;stroke-width:1.0;stroke-dasharray:7.0,7.0;"/><polygon fill="#181818" points="428,496.72,432,487.72,428,491.72,424,487.72,428,496.72" style="stroke:#181818;stroke-width:1.0;"/><text fill="#000000" font-family="sans-serif" font-size="13" lengthAdjust="spacing" textLength="55" x="372" y="476.0051">&#171;include&#187;</text></g><!--link leave_comment to view_chapter--><g id="link_leave_comment_view_chapter"><path d="M486.03,343 C519.6,343 556.27,343 592.62,343 " fill="none" id="leave_comment-to-view_chapter" style="stroke:#181818;stroke-width:1.0;stroke-dasharray:7.0,7.0;"/><polygon fill="#181818" points="598.62,343,589.62,339,593.62,343,589.62,347,598.62,343" style="stroke:#181818;stroke-width:1.0;"/><text fill="#000000" font-family="sans-serif" font-size="13" lengthAdjust="spacing" textLength="55" x="486.32" y="357.4951">&#171;include&#187;</text></g><!--link check_review to leave_comment--><g id="link_check_review_leave_comment"><path d="M428,280.29 C428,291.25 428,297.77 428,308.72 " fill="none" id="check_review-to-leave_comment" style="stroke:#181818;stroke-width:1.0;stroke-dasharray:7.0,7.0;"/><polygon fill="#181818" points="428,314.72,432,305.72,428,309.72,424,305.72,428,314.72" style="stroke:#181818;stroke-width:1.0;"/><text fill="#000000" font-family="sans-serif" font-size="13" lengthAdjust="spacing" textLength="55" x="372" y="294.0051">&#171;include&#187;</text></g><!--link author to publish_chapter--><g id="link_author_publish_chapter"><path d="M231.55,137.25 C266.03,137.25 338.39,137.25 385.01,137.25 " fill="none" id="author-publish_chapter" style="stroke:#181818;stroke-width:1.0;"/></g><!--link author to view_chapter--><g id="link_author_view_chapter"><path d="M231.64,115.5 C319.96,115.5 676,115.5 676,115.5 C676,115.5 676,253.66 676,314.65 " fill="none" id="author-view_chapter" style="stroke:#181818;stroke-width:1.0;"/></g><!--link employee to view_chapter--><g id="link_employee_view_chapter"><path d="M257.34,557 C374.09,557 676,557 676,557 C676,557 676,429.63 676,371.42 " fill="none" id="employee-view_chapter" style="stroke:#181818;stroke-width:1.0;"/></g><!--link author to edit_chapter--><g id="link_author_edit_chapter"><path d="M231.55,94.25 C269.35,94.25 352.7,94.25 397.72,94.25 " fill="none" id="author-edit_chapter" style="stroke:#181818;stroke-width:1.0;"/></g><!--link reviewer to leave_comment--><g id="link_reviewer_leave_comment"><path d="M42,408.17 C42,381.26 42,343 42,343 C42,343 261.96,343 369.79,343 " fill="none" id="reviewer-leave_comment" style="stroke:#181818;stroke-width:1.0;"/></g><!--link author to check_review--><g id="link_author_check_review"><path d="M212,141.58 C212,180.98 212,252 212,252 C212,252 304.47,252 368.41,252 " fill="none" id="author-check_review" style="stroke:#181818;stroke-width:1.0;"/></g><!--link employee to complete_request--><g id="link_employee_complete_request"><path d="M257.02,525 C285.7,525 323.5,525 356.26,525 " fill="none" id="employee-complete_request" style="stroke:#181818;stroke-width:1.0;"/></g><!--SRC=[VLFBRjim4BppAnQv9-YrHM2Wtz1h0OEXjnOXIbH5AgbH170SeAUWw378eQt_m4aQs71Ulq3-KPTI8ukoKmCM9EtES6TsP5AP5xpa6N1XTVd1JXH2efNI9yoqDILpj9C2GPSsqPr2oVFKO05ltp3sFX30dllXRlpCFVdf7d03l294sHRdL9ZvgJztVzoZMxdrnvokItfQ4EZEtViBVqPtDsvHmp4hb9uWjWI_tPt_HesF1AAhdzLj9HvBFC7DELVkddWt3K99p2rZBurmS31eoU4T71u2Vh6OZs0mOApW8kLZ99vBDuV_3cWcnc86NndGhp8ek0cud-wPD5xNKwpTKsWdtHT0Sc_fvO8yEg_nHNMaf4c68k659G4npIy_9SFEt4DZ6sdVIH8qlS9mIRC_r7wjTcDn96s4jNgCDY6B6arzNTUaPjaPfRvzsSZAVs_iJb2amyRi7IppmD5O-Zg7GdwCGw6pB6nkc-IA37xUg5hNURhzfohZATBvdoiqThSCEdCHnD0kszKiwTMQ_ij6XAPye8rvJjafOme_MV89IZbEB8naYS9AdJFMn0psz-C1MFS9A7bzwYQ1CXUg6c68O2I-3cjtnrljNRy3VmplTxFcemnZzkFNAKMXQZ-LVg43Y9Aq-TAe4g-o0ubo4XsoPJvZVm40]--></g></svg>