<?xml version="1.0" encoding="us-ascii" standalone="no"?><svg xmlns="http://www.w3.org/2000/svg" xmlns:xlink="http://www.w3.org/1999/xlink" contentStyleType="text/css" height="752px" preserveAspectRatio="none" style="width:366px;height:752px;background:#FFFFFF;" version="1.1" viewBox="0 0 366 752" width="366px" zoomAndPan="magnify"><defs/><g><!--cluster system--><g id="cluster_system"><path d="M145.5,73 L267.5,73 A3.75,3.75 0 0 1 270,75.5 L277,96.6094 L356.5,96.6094 A2.5,2.5 0 0 1 359,99.1094 L359,742.5 A2.5,2.5 0 0 1 356.5,745 L145.5,745 A2.5,2.5 0 0 1 143,742.5 L143,75.5 A2.5,2.5 0 0 1 145.5,73 " fill="none" style="stroke:#000000;stroke-width:1.5;"/><line style="stroke:#000000;stroke-width:1.5;" x1="143" x2="277" y1="96.6094" y2="96.6094"/><text fill="#000000" font-family="sans-serif" font-size="14" font-weight="bold" lengthAdjust="spacing" textLength="121" x="147" y="89.5332">&#1048;&#1057; &#1080;&#1079;&#1076;&#1072;&#1090;&#1077;&#1083;&#1100;&#1089;&#1090;&#1074;&#1072;</text></g><g id="elem_publish_chapter"><ellipse cx="250.7817" cy="318.9034" fill="#F1F1F1" rx="80.7817" ry="27.9034" style="stroke:#181818;stroke-width:0.5;"/><text fill="#000000" font-family="sans-serif" font-size="14" lengthAdjust="spacing" textLength="94" x="201.7817" y="313.8272">&#1054;&#1087;&#1091;&#1073;&#1083;&#1080;&#1082;&#1086;&#1074;&#1072;&#1090;&#1100;</text><text fill="#000000" font-family="sans-serif" font-size="14" lengthAdjust="spacing" textLength="35" x="233.2817" y="331.4366">&#1075;&#1083;&#1072;&#1074;&#1091;</text></g><g id="elem_view_chapter"><ellipse cx="251.0391" cy="409.9034" fill="#F1F1F1" rx="76.5391" ry="27.9034" style="stroke:#181818;stroke-width:0.5;"/><text fill="#000000" font-family="sans-serif" font-size="14" lengthAdjust="spacing" textLength="88" x="205.0391" y="404.8272">&#1055;&#1088;&#1086;&#1089;&#1084;&#1086;&#1090;&#1088;&#1077;&#1090;&#1100;</text><text fill="#000000" font-family="sans-serif" font-size="14" lengthAdjust="spacing" textLength="35" x="233.5391" y="422.4366">&#1075;&#1083;&#1072;&#1074;&#1091;</text></g><g id="elem_edit_chapter"><ellipse cx="250.7756" cy="136.9034" fill="#F1F1F1" rx="60.2756" ry="27.9034" style="stroke:#181818;stroke-width:0.5;"/><text fill="#000000" font-family="sans-serif" font-size="14" lengthAdjust="spacing" textLength="65" x="216.2756" y="131.8272">&#1048;&#1079;&#1084;&#1077;&#1085;&#1080;&#1090;&#1100;</text><text fill="#000000" font-family="sans-serif" font-size="14" lengthAdjust="spacing" textLength="35" x="233.2756" y="149.4366">&#1075;&#1083;&#1072;&#1074;&#1091;</text></g><g id="elem_leave_comment"><ellipse cx="251.1543" cy="500.9034" fill="#F1F1F1" rx="58.1543" ry="27.9034" style="stroke:#181818;stroke-width:0.5;"/><text fill="#000000" font-family="sans-serif" font-size="14" lengthAdjust="spacing" textLength="55" x="221.6543" y="495.8272">&#1057;&#1086;&#1079;&#1076;&#1072;&#1090;&#1100;</text><text fill="#000000" font-family="sans-serif" font-size="14" lengthAdjust="spacing" textLength="66" x="218.1543" y="513.4366">&#1088;&#1077;&#1094;&#1077;&#1085;&#1079;&#1080;&#1102;</text></g><g id="elem_check_review"><ellipse cx="251.0685" cy="227.9034" fill="#F1F1F1" rx="59.5685" ry="27.9034" style="stroke:#181818;stroke-width:0.5;"/><text fill="#000000" font-family="sans-serif" font-size="14" lengthAdjust="spacing" textLength="64" x="217.0685" y="222.8272">&#1054;&#1073;&#1086;&#1079;&#1088;&#1077;&#1090;&#1100;</text><text fill="#000000" font-family="sans-serif" font-size="14" lengthAdjust="spacing" textLength="66" x="218.0685" y="240.4366">&#1088;&#1077;&#1094;&#1077;&#1085;&#1079;&#1080;&#1102;</text></g><g id="elem_make_request"><ellipse cx="250.8406" cy="591.9034" fill="#F1F1F1" rx="46.8406" ry="27.9034" style="stroke:#181818;stroke-width:0.5;"/><text fill="#000000" font-family="sans-serif" font-size="14" lengthAdjust="spacing" textLength="46" x="225.8406" y="586.8272">&#1050;&#1091;&#1087;&#1080;&#1090;&#1100;</text><text fill="#000000" font-family="sans-serif" font-size="14" lengthAdjust="spacing" textLength="34" x="233.8406" y="604.4366">&#1082;&#1085;&#1080;&#1075;&#1091;</text></g><g id="elem_complete_request"><ellipse cx="251.1058" cy="700.9063" fill="#F1F1F1" rx="92.1058" ry="27.9063" style="stroke:#181818;stroke-width:0.5;"/><text fill="#000000" font-family="sans-serif" font-size="14" lengthAdjust="spacing" textLength="110" x="193.1474" y="696.098">&#1054;&#1090;&#1087;&#1088;&#1072;&#1074;&#1080;&#1090;&#1100; &#1082;&#1085;&#1080;&#1075;&#1091;</text><text fill="#000000" font-family="sans-serif" font-size="14" lengthAdjust="spacing" textLength="52" x="224.1474" y="713.7074">&#1082;&#1083;&#1080;&#1077;&#1085;&#1090;&#1091;</text></g><!--entity author--><g id="elem_author"><ellipse cx="51" cy="253.5" fill="#F1F1F1" rx="4.5" ry="4.5" style="stroke:#181818;stroke-width:0.5;"/><path d="M38.5,260 L38.5,265 L48,265 L48,267.2574 L38.5,276.7574 L42.7426,281 L51,272.7426 L59.2574,281 L63.5,276.7574 L54,267.2574 L54,265 L63.5,265 L63.5,260 L38.5,260 " fill="#F1F1F1" style="stroke:#181818;stroke-width:0.5;"/><text fill="#000000" font-family="sans-serif" font-size="14" lengthAdjust="spacing" textLength="39" x="31.5" y="296.0332">&#1040;&#1074;&#1090;&#1086;&#1088;</text></g><!--entity employee--><g id="elem_employee"><ellipse cx="51" cy="472" fill="#F1F1F1" rx="4.5" ry="4.5" style="stroke:#181818;stroke-width:0.5;"/><path d="M38.5,478.5 L38.5,483.5 L48,483.5 L48,485.7574 L38.5,495.2574 L42.7426,499.5 L51,491.2426 L59.2574,499.5 L63.5,495.2574 L54,485.7574 L54,483.5 L63.5,483.5 L63.5,478.5 L38.5,478.5 " fill="#F1F1F1" style="stroke:#181818;stroke-width:0.5;"/><text fill="#000000" font-family="sans-serif" font-size="14" lengthAdjust="spacing" textLength="70" x="6" y="514.5332">&#1057;&#1086;&#1090;&#1088;&#1091;&#1076;&#1085;&#1080;&#1082;</text><text fill="#000000" font-family="sans-serif" font-size="14" lengthAdjust="spacing" textLength="90" x="6" y="532.1426">&#1080;&#1079;&#1076;&#1072;&#1090;&#1077;&#1083;&#1100;&#1089;&#1090;&#1074;&#1072;</text></g><!--entity client--><g id="elem_client"><ellipse cx="251" cy="10.5" fill="#F1F1F1" rx="4.5" ry="4.5" style="stroke:#181818;stroke-width:0.5;"/><path d="M238.5,17 L238.5,22 L248,22 L248,24.2574 L238.5,33.7574 L242.7426,38 L251,29.7426 L259.2574,38 L263.5,33.7574 L254,24.2574 L254,22 L263.5,22 L263.5,17 L238.5,17 " fill="#F1F1F1" style="stroke:#181818;stroke-width:0.5;"/><text fill="#000000" font-family="sans-serif" font-size="14" lengthAdjust="spacing" textLength="47" x="227.5" y="53.0332">&#1050;&#1083;&#1080;&#1077;&#1085;&#1090;</text></g><!--link complete_request to make_request--><g id="link_complete_request_make_request"><path d="M251,672.93 C251,656.78 251,642.55 251,626.35 " fill="none" id="complete_request-to-make_request" style="stroke:#181818;stroke-width:1.0;stroke-dasharray:7.0,7.0;"/><polygon fill="#181818" points="251,620.35,247,629.35,251,625.35,255,629.35,251,620.35" style="stroke:#181818;stroke-width:1.0;"/><text fill="#000000" font-family="sans-serif" font-size="13" lengthAdjust="spacing" textLength="41" x="218.5" y="651.9951">include</text></g><!--reverse link publish_chapter to author--><g id="link_publish_chapter_author"><path d="M176.9992,302.4104 C137.4392,293.4204 96.14,284.03 70.63,278.23 " fill="none" id="publish_chapter-backto-author" style="stroke:#181818;stroke-width:1.0;"/><polygon fill="#181818" points="182.85,303.74,174.9602,297.8451,177.9743,302.632,173.1874,305.6462,182.85,303.74" style="stroke:#181818;stroke-width:1.0;"/></g><!--link author to view_chapter--><g id="link_author_view_chapter"><path d="M70.65,299.82 C86.04,319.6 109.44,346.4 135,364 C152,375.71 166.8105,382.9808 185.7005,390.1508 " fill="none" id="author-to-view_chapter" style="stroke:#181818;stroke-width:1.0;"/><polygon fill="#181818" points="191.31,392.28,184.3152,385.3466,186.6354,390.5057,181.4763,392.8259,191.31,392.28" style="stroke:#181818;stroke-width:1.0;"/></g><!--link employee to view_chapter--><g id="link_employee_view_chapter"><path d="M96.23,475.06 C108.6,468.2 122.18,461.03 135,455 C154.5,445.83 170.8067,439.0756 190.2367,431.6356 " fill="none" id="employee-to-view_chapter" style="stroke:#181818;stroke-width:1.0;"/><polygon fill="#181818" points="195.84,429.49,186.0047,428.9728,191.1706,431.278,188.8655,436.4439,195.84,429.49" style="stroke:#181818;stroke-width:1.0;"/></g><!--link author to edit_chapter--><g id="link_author_edit_chapter"><path d="M69.87,248.36 C85.16,228.02 108.81,200.1 135,182 C154.22,168.71 172.2517,160.5472 193.1417,153.2972 " fill="none" id="author-to-edit_chapter" style="stroke:#181818;stroke-width:1.0;"/><polygon fill="#181818" points="198.81,151.33,188.996,150.502,194.0864,152.9694,191.619,158.0597,198.81,151.33" style="stroke:#181818;stroke-width:1.0;"/></g><!--link employee to leave_comment--><g id="link_employee_leave_comment"><path d="M96.44,501 C124.94,501 156.22,501 186.91,501 " fill="none" id="employee-to-leave_comment" style="stroke:#181818;stroke-width:1.0;"/><polygon fill="#181818" points="192.91,501,183.91,497,187.91,501,183.91,505,192.91,501" style="stroke:#181818;stroke-width:1.0;"/></g><!--link author to check_review--><g id="link_author_check_review"><path d="M70.63,269.67 C99.32,263.01 149.5256,251.3374 191.3756,241.6174 " fill="none" id="author-to-check_review" style="stroke:#181818;stroke-width:1.0;"/><polygon fill="#181818" points="197.22,240.26,187.5484,238.3998,192.3496,241.3912,189.3583,246.1924,197.22,240.26" style="stroke:#181818;stroke-width:1.0;"/></g><!--reverse link make_request to client--><g id="link_make_request_client"><path d="M199.121,584.5767 C166.141,577.2967 130.8,562.78 115.5,528.5 C96.57,486.09 96.57,152.91 115.5,110.5 C135.45,65.79 194.04,44.69 227.28,36.08 " fill="none" id="make_request-backto-client" style="stroke:#181818;stroke-width:1.0;"/><polygon fill="#181818" points="204.98,585.87,197.0538,580.0241,200.0975,584.7922,195.3294,587.836,204.98,585.87" style="stroke:#181818;stroke-width:1.0;"/></g><!--link employee to complete_request--><g id="link_employee_complete_request"><path d="M66.67,535.09 C80.79,564.83 104.48,607.68 135,637 C152.63,653.94 170.2559,665.192 191.0359,675.702 " fill="none" id="employee-to-complete_request" style="stroke:#181818;stroke-width:1.0;"/><polygon fill="#181818" points="196.39,678.41,190.1641,670.7786,191.9282,676.1533,186.5535,677.9174,196.39,678.41" style="stroke:#181818;stroke-width:1.0;"/></g><!--SRC=[VP9DJiCm48NtFiM83Iiu00iapi0MgJBkGAmwSOWTgWeXbIAnGeXbrGM86vIV2bH-UeN9ZPYuRTgqXIoY93FlotipTYsTf3AJCKZbRNReEmOXiiROjjXsLT7e17qdHR2PZwmG1sKpRD4zlHGz-YcwMo0To9oBMLLyuaAlw1RNz4RVz47ZeuJlx_msPD68FelRuegVNcWOv1YdndOGAy20Fbamek-Y5ngKqPXu8LAfMl8KkQDFJ_0lqtMSnnWk1F2LErJIbRe7ch2jvy0Vqq_PpbPlWHs-yiSXnxeE-ZG_Djf53HN9r6EsWdaikfpnYhwcIMcq6NAkiVq7eS_Ulyg8zB5PYqtj_z3oVEV9Wp8Ok0cmTyRT1Rr1UOuDPUEu7Dtg59vBn9BnZGWLeMerCYnZh106FCN9mleuxFbrPZsMBMJPMOvkxS-yeWd_Z7FEr0lj55HjVWRZ1Ab1lm1U2c7mn8EtaEdJo4DJPwYyjeaGgysmkrzp0tkW4sNo9WenFRImKy9szjSMNjMvLjlZ_BIkLvObjVNLDVNDB8jg0nVJKryPh4srJboRaH2_]--></g></svg>